<svg viewBox="0 0 573 576" fill="none" xmlns="http://www.w3.org/2000/svg">
<mask id="path-1-inside-1" fill="white">
<path fill-rule="evenodd" clip-rule="evenodd" d="M402.999 116H563C568.523 116 573 120.477 573 126V566C573 571.523 568.523 576 563 576H10C4.47715 576 0 571.523 0 566V126C0 120.477 4.47715 116 10 116H170.001C170.27 51.8888 222.326 0 286.5 0C350.674 0 402.73 51.8888 402.999 116Z"/>
</mask>
<path fill-rule="evenodd" clip-rule="evenodd" d="M402.999 116H563C568.523 116 573 120.477 573 126V566C573 571.523 568.523 576 563 576H10C4.47715 576 0 571.523 0 566V126C0 120.477 4.47715 116 10 116H170.001C170.27 51.8888 222.326 0 286.5 0C350.674 0 402.73 51.8888 402.999 116Z" fill="white"/>
<path d="M402.999 116L392.999 116.042L393.041 126H402.999V116ZM170.001 116V126H179.959L180.001 116.042L170.001 116ZM402.999 126H563V106H402.999V126ZM563 126H583C583 114.954 574.046 106 563 106V126ZM563 126V566H583V126H563ZM563 566V586C574.046 586 583 577.046 583 566H563ZM563 566H10V586H563V566ZM10 566H10H-10C-10 577.046 -1.04572 586 10 586V566ZM10 566V126H-10V566H10ZM10 126V106C-1.04569 106 -10 114.954 -10 126H10ZM10 126H170.001V106H10V126ZM180.001 116.042C180.247 57.4349 227.834 10 286.5 10V-10C216.817 -10 160.294 46.3427 160.001 115.958L180.001 116.042ZM286.5 10C345.166 10 392.753 57.4349 392.999 116.042L412.999 115.958C412.706 46.3427 356.183 -10 286.5 -10V10Z" fill="#DB3A34" mask="url(#path-1-inside-1)"/>
<circle cx="286.5" cy="115.5" r="80.5" fill="#DB3A34"/>
<path d="M254.505 86.8744C261.437 86.8744 267.076 92.5157 267.082 99.4593C267.089 101.956 266.361 104.4 264.99 106.48C263.618 108.561 261.664 110.185 259.375 111.148C257.087 112.11 254.566 112.368 252.132 111.888C249.697 111.408 247.459 110.213 245.7 108.452C243.941 106.692 242.739 104.446 242.248 101.998C241.757 99.5509 241.998 97.0116 242.941 94.7019C243.883 92.3921 245.485 90.4156 247.543 89.0223C249.602 87.629 252.024 86.8815 254.505 86.8744V86.8744Z" fill="white"/>
<path d="M299.312 99.5057C299.314 101.163 298.991 102.804 298.362 104.335C297.733 105.866 296.81 107.258 295.646 108.429C294.483 109.601 293.101 110.531 291.58 111.165C290.059 111.799 288.429 112.124 286.783 112.123C279.845 112.123 274.26 106.424 274.285 99.3922C274.311 92.4296 279.925 86.8709 286.905 86.883C293.761 86.8847 299.322 92.5466 299.312 99.5057Z" fill="white"/>
<path d="M331.577 99.5058C331.594 101.172 331.282 102.826 330.66 104.37C330.038 105.914 329.117 107.319 327.952 108.503C326.786 109.686 325.399 110.625 323.87 111.265C322.342 111.906 320.702 112.234 319.047 112.232C317.391 112.23 315.753 111.897 314.226 111.252C312.699 110.608 311.315 109.665 310.152 108.478C308.99 107.291 308.074 105.884 307.455 104.338C306.837 102.792 306.53 101.138 306.552 99.4714C306.552 92.4383 312.142 86.8607 319.166 86.8744C326.029 86.8865 331.58 92.5363 331.577 99.5058Z" fill="white"/>
<path d="M319.074 120.357C321.165 120.36 323.208 120.986 324.945 122.157C326.682 123.328 328.036 124.991 328.834 126.937C329.633 128.882 329.84 131.022 329.431 133.086C329.022 135.15 328.014 137.045 326.534 138.533C325.055 140.02 323.171 141.033 321.12 141.442C319.069 141.852 316.944 141.641 315.013 140.835C313.081 140.029 311.431 138.664 310.269 136.914C309.108 135.164 308.488 133.106 308.488 131.002C308.487 129.602 308.76 128.217 309.291 126.924C309.823 125.631 310.603 124.457 311.586 123.468C312.57 122.479 313.737 121.695 315.022 121.161C316.307 120.628 317.684 120.354 319.074 120.357V120.357Z" fill="white"/>
<path d="M286.783 120.357C288.873 120.36 290.916 120.986 292.653 122.156C294.39 123.327 295.743 124.989 296.542 126.934C297.341 128.878 297.55 131.017 297.141 133.081C296.733 135.144 295.726 137.04 294.249 138.528C292.771 140.016 290.888 141.029 288.838 141.441C286.788 141.852 284.663 141.642 282.731 140.839C280.8 140.035 279.148 138.673 277.985 136.924C276.822 135.176 276.2 133.12 276.197 131.016C276.19 129.614 276.459 128.225 276.988 126.928C277.517 125.632 278.297 124.454 279.281 123.463C280.266 122.472 281.435 121.687 282.723 121.154C284.011 120.621 285.391 120.35 286.783 120.357V120.357Z" fill="white"/>
<path d="M278.175 67.7398C278.167 66.0169 278.668 64.3306 279.613 62.8944C280.558 61.4582 281.906 60.337 283.485 59.6727C285.064 59.0084 286.804 58.8311 288.483 59.1631C290.162 59.4952 291.706 60.3217 292.918 61.5379C294.13 62.7541 294.957 64.3052 295.292 65.9946C295.628 67.684 295.457 69.4357 294.803 71.0276C294.148 72.6195 293.039 73.9799 291.616 74.9364C290.192 75.8929 288.519 76.4025 286.807 76.4004C285.675 76.4036 284.554 76.182 283.507 75.7482C282.46 75.3144 281.508 74.6771 280.706 73.8726C279.905 73.0682 279.268 72.1124 278.834 71.06C278.4 70.0077 278.176 68.8794 278.175 67.7398V67.7398Z" fill="white"/>
<path d="M327.691 163.485C327.695 165.208 327.192 166.894 326.244 168.329C325.296 169.764 323.946 170.883 322.365 171.544C320.784 172.206 319.044 172.38 317.365 172.045C315.686 171.71 314.144 170.88 312.933 169.662C311.723 168.443 310.899 166.89 310.567 165.2C310.234 163.51 310.408 161.758 311.065 160.167C311.723 158.576 312.835 157.217 314.26 156.263C315.685 155.309 317.36 154.802 319.072 154.807C321.357 154.81 323.549 155.725 325.164 157.352C326.78 158.979 327.689 161.184 327.691 163.485Z" fill="white"/>
</svg>
